<?xml version="1.0" standalone="no"?>
<!DOCTYPE svg PUBLIC "-//W3C//DTD SVG 20010904//EN"
 "http://www.w3.org/TR/2001/REC-SVG-20010904/DTD/svg10.dtd">
<svg version="1.0" xmlns="http://www.w3.org/2000/svg"
 width="500.000000pt" height="500.000000pt" viewBox="0 0 500.000000 500.000000"
 preserveAspectRatio="xMidYMid meet">
<metadata>
Created by potrace 1.14, written by Peter Selinger 2001-2017
</metadata>
<g transform="translate(0.000000,500.000000) scale(0.100000,-0.100000)"
fill="#000000" stroke="none">
<path d="M2065 4024 c-66 -19 -169 -48 -230 -65 -60 -17 -134 -37 -162 -45
l-53 -15 -1 -732 c0 -403 -4 -740 -8 -750 -6 -18 -7 -18 -23 0 -15 17 -48 85
-48 98 0 3 0 242 0 533 l-1 527 -193 97 -194 97 -169 -45 c-92 -25 -175 -48
-184 -51 -15 -4 -16 -66 -14 -676 2 -652 3 -674 24 -751 11 -44 33 -100 48
-125 37 -64 112 -141 172 -176 28 -16 51 -32 51 -35 0 -3 -56 -27 -124 -53
-68 -27 -131 -56 -139 -65 -27 -30 -35 -88 -32 -226 2 -124 5 -140 30 -191 31
-64 65 -92 155 -128 36 -14 169 -69 295 -122 292 -123 321 -133 429 -156 169
-35 308 -7 398 80 38 37 153 206 303 446 8 13 19 4 65 -56 30 -39 71 -91 90
-116 160 -208 258 -287 415 -337 237 -74 535 -45 764 76 142 75 206 121 307
222 163 163 247 333 272 556 5 41 8 318 7 615 -2 578 -3 591 -56 746 -82 240
-278 441 -567 583 -216 105 -537 127 -754 50 -81 -28 -174 -88 -238 -154 -61
-62 -221 -259 -247 -304 -15 -26 -14 -41 -16 200 l-2 182 -57 78 c-31 44 -65
89 -75 101 -10 12 -34 45 -53 72 -19 28 -42 50 -50 50 -8 0 -69 -16 -135 -35z
m1348 -973 c15 -14 40 -50 55 -81 l27 -55 3 -470 c4 -502 1 -546 -44 -616 -30
-48 -60 -76 -107 -100 -36 -19 -38 -19 -45 -2 -10 24 -9 1331 1 1366 l8 28 37
-22 c20 -12 50 -34 65 -48z m-1793 -1165 l0 -123 -132 30 c-132 30 -166 43
-151 58 4 4 32 19 61 34 28 14 52 32 52 39 0 13 132 84 158 85 9 1 12 -30 12
-123z"/>
</g>
</svg>
